<svg width="651" height="137" viewBox="0 0 651 137" fill="none" xmlns="http://www.w3.org/2000/svg">
<path d="M651 71.1197C651 137 505.269 136.999 325.5 136.999C138 136.999 3.92109e-05 136.999 0 65.8793C-3.63217e-05 -0.000488281 138 -0.000488281 325.5 -0.000488171C505.269 -0.000488065 651 0.000778198 651 71.1197Z" fill="white" fill-opacity="0.79"/>
<path d="M88.4 80.58C87.76 81.02 86.8 81.56 85.52 82.2C84.28 82.84 82.78 83.4 81.02 83.88C79.26 84.32 77.34 84.52 75.26 84.48C71.86 84.44 68.8 83.84 66.08 82.68C63.36 81.48 61.04 79.88 59.12 77.88C57.24 75.84 55.8 73.52 54.8 70.92C53.8 68.28 53.3 65.48 53.3 62.52C53.3 59.2 53.82 56.16 54.86 53.4C55.94 50.64 57.42 48.26 59.3 46.26C61.22 44.22 63.48 42.64 66.08 41.52C68.72 40.4 71.62 39.84 74.78 39.84C77.54 39.84 80 40.22 82.16 40.98C84.36 41.7 86.2 42.52 87.68 43.44L84.92 49.98C83.8 49.22 82.4 48.46 80.72 47.7C79.04 46.94 77.14 46.56 75.02 46.56C72.42 46.56 70.02 47.26 67.82 48.66C65.66 50.02 63.9 51.88 62.54 54.24C61.22 56.56 60.56 59.18 60.56 62.1C60.56 65.14 61.16 67.84 62.36 70.2C63.6 72.56 65.32 74.42 67.52 75.78C69.76 77.1 72.4 77.76 75.44 77.76C77.72 77.76 79.7 77.42 81.38 76.74C83.06 76.02 84.42 75.22 85.46 74.34L88.4 80.58ZM107.019 84.66C104.619 84.66 102.459 84.16 100.539 83.16C98.6188 82.16 97.0788 80.68 95.9188 78.72C94.7988 76.76 94.2388 74.3 94.2388 71.34C94.2388 68.46 94.8188 66 95.9788 63.96C97.1788 61.88 98.7388 60.28 100.659 59.16C102.619 58.04 104.739 57.48 107.019 57.48C109.379 57.48 111.279 57.94 112.719 58.86C114.199 59.74 115.379 60.8 116.259 62.04L116.739 58.62H122.919V84H116.199V80.28C115.759 80.8 115.119 81.4 114.279 82.08C113.439 82.76 112.399 83.36 111.159 83.88C109.959 84.4 108.579 84.66 107.019 84.66ZM108.879 79.14C110.679 79.14 112.219 78.66 113.499 77.7C114.779 76.74 115.679 75.42 116.199 73.74V68.22C115.719 66.66 114.799 65.4 113.439 64.44C112.079 63.48 110.479 63 108.639 63C107.239 63 105.959 63.34 104.799 64.02C103.679 64.66 102.759 65.6 102.039 66.84C101.359 68.04 101.019 69.42 101.019 70.98C101.019 72.5 101.379 73.88 102.099 75.12C102.819 76.36 103.759 77.34 104.919 78.06C106.119 78.78 107.439 79.14 108.879 79.14ZM138.258 58.62L138.738 64.5C139.458 63.06 140.438 61.82 141.678 60.78C142.918 59.7 144.178 58.88 145.458 58.32C146.778 57.76 147.858 57.48 148.698 57.48L148.398 64.2C146.478 64.04 144.798 64.38 143.358 65.22C141.958 66.06 140.858 67.2 140.058 68.64C139.298 70.04 138.918 71.52 138.918 73.08V84H132.198V58.62H138.258ZM158.037 47.46H164.757V58.62H171.357V63.9H164.757V84H158.037V63.9H153.657V58.62H158.037V47.46ZM175.86 71.04C175.86 68.48 176.46 66.18 177.66 64.14C178.9 62.1 180.58 60.48 182.7 59.28C184.86 58.08 187.34 57.48 190.14 57.48C192.98 57.48 195.44 58.08 197.52 59.28C199.64 60.48 201.28 62.1 202.44 64.14C203.6 66.18 204.18 68.48 204.18 71.04C204.18 73.6 203.6 75.92 202.44 78C201.28 80.04 199.64 81.66 197.52 82.86C195.4 84.06 192.92 84.66 190.08 84.66C187.32 84.66 184.86 84.12 182.7 83.04C180.58 81.92 178.9 80.34 177.66 78.3C176.46 76.26 175.86 73.84 175.86 71.04ZM182.64 71.1C182.64 72.62 182.96 74 183.6 75.24C184.24 76.44 185.1 77.4 186.18 78.12C187.3 78.8 188.56 79.14 189.96 79.14C192.16 79.14 193.94 78.38 195.3 76.86C196.66 75.3 197.34 73.38 197.34 71.1C197.34 68.82 196.66 66.9 195.3 65.34C193.94 63.78 192.16 63 189.96 63C188.56 63 187.3 63.38 186.18 64.14C185.1 64.86 184.24 65.84 183.6 67.08C182.96 68.28 182.64 69.62 182.64 71.1ZM209.141 71.04C209.141 68.48 209.741 66.18 210.941 64.14C212.181 62.1 213.861 60.48 215.981 59.28C218.141 58.08 220.621 57.48 223.421 57.48C226.261 57.48 228.721 58.08 230.801 59.28C232.921 60.48 234.561 62.1 235.721 64.14C236.881 66.18 237.461 68.48 237.461 71.04C237.461 73.6 236.881 75.92 235.721 78C234.561 80.04 232.921 81.66 230.801 82.86C228.681 84.06 226.201 84.66 223.361 84.66C220.601 84.66 218.141 84.12 215.981 83.04C213.861 81.92 212.181 80.34 210.941 78.3C209.741 76.26 209.141 73.84 209.141 71.04ZM215.921 71.1C215.921 72.62 216.241 74 216.881 75.24C217.521 76.44 218.381 77.4 219.461 78.12C220.581 78.8 221.841 79.14 223.241 79.14C225.441 79.14 227.221 78.38 228.581 76.86C229.941 75.3 230.621 73.38 230.621 71.1C230.621 68.82 229.941 66.9 228.581 65.34C227.221 63.78 225.441 63 223.241 63C221.841 63 220.581 63.38 219.461 64.14C218.381 64.86 217.521 65.84 216.881 67.08C216.241 68.28 215.921 69.62 215.921 71.1ZM250.582 58.62L251.062 63.18C251.942 61.46 253.242 60.1 254.962 59.1C256.682 58.06 258.722 57.54 261.082 57.54C263.442 57.54 265.402 58.26 266.962 59.7C268.562 61.1 269.382 62.92 269.422 65.16V84H262.702V67.56C262.622 66.28 262.242 65.26 261.562 64.5C260.922 63.7 259.862 63.28 258.382 63.24C256.302 63.24 254.582 64.14 253.222 65.94C251.902 67.7 251.242 69.96 251.242 72.72V84H244.522V58.62H250.582ZM331.681 80.58C331.041 81.02 330.081 81.56 328.801 82.2C327.561 82.84 326.061 83.4 324.301 83.88C322.541 84.32 320.621 84.52 318.541 84.48C315.141 84.44 312.081 83.84 309.361 82.68C306.641 81.48 304.321 79.88 302.401 77.88C300.521 75.84 299.081 73.52 298.081 70.92C297.081 68.28 296.581 65.48 296.581 62.52C296.581 59.2 297.101 56.16 298.141 53.4C299.221 50.64 300.701 48.26 302.581 46.26C304.501 44.22 306.761 42.64 309.361 41.52C312.001 40.4 314.901 39.84 318.061 39.84C320.821 39.84 323.281 40.22 325.441 40.98C327.641 41.7 329.481 42.52 330.961 43.44L328.201 49.98C327.081 49.22 325.681 48.46 324.001 47.7C322.321 46.94 320.421 46.56 318.301 46.56C315.701 46.56 313.301 47.26 311.101 48.66C308.941 50.02 307.181 51.88 305.821 54.24C304.501 56.56 303.841 59.18 303.841 62.1C303.841 65.14 304.441 67.84 305.641 70.2C306.881 72.56 308.601 74.42 310.801 75.78C313.041 77.1 315.681 77.76 318.721 77.76C321.001 77.76 322.981 77.42 324.661 76.74C326.341 76.02 327.701 75.22 328.741 74.34L331.681 80.58ZM339.62 84V37.2H346.22V63C347.1 61.4 348.38 60.1 350.06 59.1C351.78 58.06 353.82 57.54 356.18 57.54C358.54 57.54 360.5 58.26 362.06 59.7C363.66 61.1 364.48 62.92 364.52 65.16V84H357.8V67.56C357.72 66.28 357.34 65.26 356.66 64.5C356.02 63.7 354.96 63.28 353.48 63.24C351.4 63.24 349.68 64.14 348.32 65.94C347 67.74 346.34 70 346.34 72.72V84H339.62ZM384.46 84.66C382.06 84.66 379.9 84.16 377.98 83.16C376.06 82.16 374.52 80.68 373.36 78.72C372.24 76.76 371.68 74.3 371.68 71.34C371.68 68.46 372.26 66 373.42 63.96C374.62 61.88 376.18 60.28 378.1 59.16C380.06 58.04 382.18 57.48 384.46 57.48C386.82 57.48 388.72 57.94 390.16 58.86C391.64 59.74 392.82 60.8 393.7 62.04L394.18 58.62H400.36V84H393.64V80.28C393.2 80.8 392.56 81.4 391.72 82.08C390.88 82.76 389.84 83.36 388.6 83.88C387.4 84.4 386.02 84.66 384.46 84.66ZM386.32 79.14C388.12 79.14 389.66 78.66 390.94 77.7C392.22 76.74 393.12 75.42 393.64 73.74V68.22C393.16 66.66 392.24 65.4 390.88 64.44C389.52 63.48 387.92 63 386.08 63C384.68 63 383.4 63.34 382.24 64.02C381.12 64.66 380.2 65.6 379.48 66.84C378.8 68.04 378.46 69.42 378.46 70.98C378.46 72.5 378.82 73.88 379.54 75.12C380.26 76.36 381.2 77.34 382.36 78.06C383.56 78.78 384.88 79.14 386.32 79.14ZM415.7 58.62L416.18 64.5C416.9 63.06 417.88 61.82 419.12 60.78C420.36 59.7 421.62 58.88 422.9 58.32C424.22 57.76 425.3 57.48 426.14 57.48L425.84 64.2C423.92 64.04 422.24 64.38 420.8 65.22C419.4 66.06 418.3 67.2 417.5 68.64C416.74 70.04 416.36 71.52 416.36 73.08V84H409.64V58.62H415.7ZM442.995 84.66C440.595 84.66 438.435 84.16 436.515 83.16C434.595 82.16 433.055 80.68 431.895 78.72C430.775 76.76 430.215 74.3 430.215 71.34C430.215 68.46 430.795 66 431.955 63.96C433.155 61.88 434.715 60.28 436.635 59.16C438.595 58.04 440.715 57.48 442.995 57.48C445.355 57.48 447.255 57.94 448.695 58.86C450.175 59.74 451.355 60.8 452.235 62.04L452.715 58.62H458.895V84H452.175V80.28C451.735 80.8 451.095 81.4 450.255 82.08C449.415 82.76 448.375 83.36 447.135 83.88C445.935 84.4 444.555 84.66 442.995 84.66ZM444.855 79.14C446.655 79.14 448.195 78.66 449.475 77.7C450.755 76.74 451.655 75.42 452.175 73.74V68.22C451.695 66.66 450.775 65.4 449.415 64.44C448.055 63.48 446.455 63 444.615 63C443.215 63 441.935 63.34 440.775 64.02C439.655 64.66 438.735 65.6 438.015 66.84C437.335 68.04 436.995 69.42 436.995 70.98C436.995 72.5 437.355 73.88 438.075 75.12C438.795 76.36 439.735 77.34 440.895 78.06C442.095 78.78 443.415 79.14 444.855 79.14ZM489.175 81.66C488.055 82.58 486.675 83.32 485.035 83.88C483.435 84.4 481.815 84.66 480.175 84.66C477.375 84.66 474.915 84.12 472.795 83.04C470.675 81.96 469.015 80.42 467.815 78.42C466.655 76.42 466.075 74.04 466.075 71.28C466.075 68.52 466.695 66.14 467.935 64.14C469.215 62.14 470.875 60.62 472.915 59.58C474.955 58.5 477.155 57.96 479.515 57.96C481.635 57.96 483.515 58.26 485.155 58.86C486.795 59.42 488.215 60.2 489.415 61.2L486.055 65.58C485.415 65.06 484.575 64.58 483.535 64.14C482.535 63.66 481.395 63.42 480.115 63.42C478.755 63.42 477.515 63.76 476.395 64.44C475.315 65.12 474.435 66.06 473.755 67.26C473.115 68.42 472.795 69.76 472.795 71.28C472.795 73.44 473.535 75.3 475.015 76.86C476.495 78.38 478.415 79.14 480.775 79.14C482.735 79.14 484.415 78.58 485.815 77.46L489.175 81.66ZM498.525 47.46H505.245V58.62H511.845V63.9H505.245V84H498.525V63.9H494.145V58.62H498.525V47.46ZM530.568 84.66C527.568 84.66 525.008 84.08 522.888 82.92C520.768 81.76 519.148 80.16 518.028 78.12C516.908 76.04 516.348 73.7 516.348 71.1C516.348 68.58 516.988 66.3 518.268 64.26C519.548 62.18 521.268 60.54 523.428 59.34C525.588 58.1 528.008 57.48 530.688 57.48C534.168 57.48 537.028 58.5 539.268 60.54C541.548 62.54 543.068 65.38 543.828 69.06L524.328 75.66C525.768 77.82 527.888 78.9 530.688 78.9C531.728 78.9 532.708 78.72 533.628 78.36C534.588 78 535.508 77.52 536.388 76.92L539.448 81.9C538.088 82.74 536.628 83.42 535.068 83.94C533.508 84.42 532.008 84.66 530.568 84.66ZM522.948 70.74C522.948 71.06 522.968 71.4 523.008 71.76L536.328 67.02C535.848 65.9 535.128 64.92 534.168 64.08C533.208 63.2 531.868 62.76 530.148 62.76C528.028 62.76 526.288 63.5 524.928 64.98C523.608 66.46 522.948 68.38 522.948 70.74ZM556.5 58.62L556.98 64.5C557.7 63.06 558.68 61.82 559.92 60.78C561.16 59.7 562.42 58.88 563.7 58.32C565.02 57.76 566.1 57.48 566.94 57.48L566.64 64.2C564.72 64.04 563.04 64.38 561.6 65.22C560.2 66.06 559.1 67.2 558.3 68.64C557.54 70.04 557.16 71.52 557.16 73.08V84H550.44V58.62H556.5ZM581.439 84.54C579.519 84.54 577.679 84.2 575.919 83.52C574.199 82.84 572.739 81.84 571.539 80.52L574.419 76.74C575.539 77.82 576.639 78.62 577.719 79.14C578.839 79.62 579.899 79.86 580.899 79.86C582.019 79.86 582.979 79.66 583.779 79.26C584.619 78.82 585.039 78.1 585.039 77.1C585.039 76.3 584.759 75.68 584.199 75.24C583.639 74.76 582.919 74.38 582.039 74.1C581.159 73.78 580.239 73.48 579.279 73.2C577.079 72.52 575.439 71.52 574.359 70.2C573.279 68.88 572.739 67.36 572.739 65.64C572.739 64.32 573.079 63.06 573.759 61.86C574.439 60.62 575.459 59.6 576.819 58.8C578.219 58 579.999 57.6 582.159 57.6C584.039 57.6 585.699 57.82 587.139 58.26C588.579 58.7 589.919 59.4 591.159 60.36L588.579 64.38C587.859 63.7 586.999 63.18 585.999 62.82C585.039 62.42 584.159 62.2 583.359 62.16C582.279 62.12 581.379 62.34 580.659 62.82C579.939 63.3 579.579 63.94 579.579 64.74C579.539 65.54 579.799 66.18 580.359 66.66C580.959 67.14 581.719 67.52 582.639 67.8C583.559 68.08 584.479 68.38 585.399 68.7C587.239 69.3 588.759 70.16 589.959 71.28C591.159 72.36 591.759 73.88 591.759 75.84C591.759 77.4 591.379 78.84 590.619 80.16C589.859 81.48 588.719 82.54 587.199 83.34C585.679 84.14 583.759 84.54 581.439 84.54Z" fill="black"/>
</svg>
