<svg id="Layer_1" enable-background="new 0 0 490.99 490.99" height="512" viewBox="0 0 490.99 490.99" width="512" xmlns="http://www.w3.org/2000/svg"><path d="m363.972 239.535c-8.372-2.827-12.867-11.906-10.04-20.278l30.659-91.861c2.827-8.373 11.909-12.866 20.278-10.04 8.372 2.828 12.867 11.906 10.04 20.278l-30.659 91.861c-2.828 8.376-11.914 12.867-20.278 10.04z" fill="#d6f4fc"/><path d="m298.472 224.956-29.381-87.321c-2.827-8.372 1.668-17.451 10.04-20.278 8.368-2.828 17.45 1.667 20.278 10.039l29.381 87.321c2.827 8.372-1.668 17.451-10.04 20.278-8.365 2.827-17.448-1.662-20.278-10.039z" fill="#d6f4fc"/><path d="m420.25 485.495h-400.01c-5.59 0-10.65-2.26-14.31-5.93-11.052-11.022-5.915-30.073 9.36-33.93l41.59-10.49c-34.47-25.09-56.88-65.75-56.88-111.65 0-76.22 61.78-138 138-138 57.39 0 106.59 35.03 127.4 84.87l11.46-30c6.02-15.74 17.52-28.19 31.8-35.57 39.791-20.623 88.836 3.232 96.63 47.94 11.32 64.891 14.844 109.984 51.36 164.74 19.472 29.249-1.731 68.02-36.4 68.02z" fill="#ffebd2"/><path d="m265.4 270.365-34.99 91.63c-7.78 20.37-25 35.68-46.14 41.01l-127.39 32.14c-34.47-25.09-56.88-65.75-56.88-111.65 0-76.22 61.78-138 138-138 57.39 0 106.59 35.03 127.4 84.87z" fill="#c79a83"/><circle cx="138" cy="322.495" fill="#a07765" r="43"/><circle cx="266" cy="78.495" fill="#e8f8fc" r="73"/><circle cx="417.99" cy="78.495" fill="#e8f8fc" r="73"/><path d="m414.87 62.805c7.661-1.476 14.982 2.576 17.899 9.57 3.349 8.03-.356 17.428-8.649 20.89-8.899 3.699-19.557-1.221-21.811-11.64-1.608-8.4 3.433-16.856 12.561-18.82z" fill="#4d4e59"/><path d="m269.13 94.185c-8.42 1.619-16.849-3.446-18.82-12.56-1.62-8.456 3.485-16.868 12.561-18.82 8.334-1.606 16.856 3.399 18.819 12.56 1.625 8.405-3.452 16.857-12.56 18.82z" fill="#4d4e59"/><path d="m301.68 14.827c9.825 5.529 5.862 20.51-5.412 20.481-38.377-.096-73.591 30.795-73.376 73.45.057 11.35-14.895 15.432-20.483 5.552-26.898-47.558 6.671-106.673 60.718-108.759 14.02-.542 27.219 2.898 38.553 9.276z" fill="#f1fafc"/><path d="m453.677 14.827c9.825 5.529 5.862 20.51-5.412 20.481-38.377-.096-73.591 30.795-73.376 73.45.057 11.35-14.895 15.432-20.483 5.552-26.898-47.558 6.671-106.674 60.718-108.76 14.02-.541 27.219 2.899 38.553 9.277z" fill="#f1fafc"/><path d="m137.997 185.495c26.138-.001 33.697 35.871 9.612 46.026-77.634 32.735-104.998 124.561-66.329 197.464l-24.4 6.16c-34.47-25.09-56.88-65.75-56.88-111.65 0-76.418 61.365-137.998 137.997-138z" fill="#e0b7a3"/><path d="m316.699 201.325c17.841-6.415 32.518 15.19 19.919 29.358-41.877 47.092 1.06 134.605-46.118 183.312-51.137 52.794-141.89-9.7-262.482 66.36-11.587 7.308-27.195-.238-27.984-13.914-.563-9.756 5.89-18.441 15.256-20.806 81.261-20.496 87.337-22.03 168.98-42.63 21.14-5.33 38.36-20.64 46.14-41.01 29.612-77.555 33.112-86.712 46.45-121.63 7.417-19.392 22.44-32.784 39.839-39.04z" fill="#fff3e4"/><path d="m420.25 485.495c-9.593 0-15.174-11.023-9.327-18.628 35.764-46.51-51.114-101.717-35.5-232.048 1.335-11.14 16.065-14.079 21.695-4.374 3.865 6.663 6.765 14.224 8.172 22.289 11.32 64.891 14.844 109.984 51.36 164.74 19.472 29.25-1.731 68.021-36.4 68.021z" fill="#ffdfba"/></svg>